<svg width="37" height="32" viewBox="0 0 37 32" fill="none" xmlns="http://www.w3.org/2000/svg">
<path d="M7.01779 20.7651H12.0459H7.01779Z" fill="#F4F4F4"/>
<path d="M7.01779 20.7651H12.0459" stroke="#EFEFEF" stroke-width="2" stroke-linecap="round" stroke-linejoin="round"/>
<path d="M3.66548 15.7371H10.3696H3.66548Z" fill="#F4F4F4"/>
<path d="M3.66548 15.7371H10.3696" stroke="#EFEFEF" stroke-width="2" stroke-linecap="round" stroke-linejoin="round"/>
<path d="M1.15155 10.709H9.53174H1.15155Z" fill="#F4F4F4"/>
<path d="M1.15155 10.709H9.53174" stroke="#EFEFEF" stroke-width="2" stroke-linecap="round" stroke-linejoin="round"/>
<mask id="path-7-inside-1_1144_3323" fill="white">
<path d="M13.5454 17.1751C13.5439 17.1651 13.5426 17.1551 13.5414 17.1451L11.8543 4.53453C11.6876 3.28861 10.8223 2.37543 9.80845 2.37543H9.38569C9.00387 2.37543 8.69434 1.98981 8.69434 1.51413C8.69434 1.03845 9.00387 0.652832 9.38569 0.652832H9.80845C11.4564 0.652832 12.8688 2.10031 13.1954 4.09802H35.6572C36.1165 4.09802 36.4481 4.64572 36.3219 5.19593L33.5565 17.2541C33.4717 17.6238 33.2004 17.8788 32.8917 17.8788H15.0413L15.2133 19.1649C15.38 20.4108 16.2453 21.324 17.2592 21.324H32.8917C33.2736 21.324 33.5831 21.7096 33.5831 22.1852C33.5831 22.6609 33.2736 23.0465 32.8917 23.0465H17.2592C15.5694 23.0465 14.1273 21.5246 13.8494 19.448L13.5454 17.1751V17.1751ZM13.4281 5.82061L14.8108 16.1562H32.3703L34.7406 5.82061H13.4281ZM16.9906 31.6595C15.4633 31.6595 14.2252 30.1171 14.2252 28.2143C14.2252 26.3116 15.4633 24.7691 16.9906 24.7691C18.5179 24.7691 19.756 26.3116 19.756 28.2143C19.756 30.1171 18.5179 31.6595 16.9906 31.6595ZM16.9906 29.9369C17.7542 29.9369 18.3733 29.1657 18.3733 28.2143C18.3733 27.263 17.7542 26.4917 16.9906 26.4917C16.2269 26.4917 15.6079 27.263 15.6079 28.2143C15.6079 29.1657 16.2269 29.9369 16.9906 29.9369ZM29.435 31.6595C27.9077 31.6595 26.6696 30.1171 26.6696 28.2143C26.6696 26.3116 27.9077 24.7691 29.435 24.7691C30.9623 24.7691 32.2004 26.3116 32.2004 28.2143C32.2004 30.1171 30.9623 31.6595 29.435 31.6595ZM29.435 29.9369C30.1986 29.9369 30.8177 29.1657 30.8177 28.2143C30.8177 27.263 30.1986 26.4917 29.435 26.4917C28.6713 26.4917 28.0523 27.263 28.0523 28.2143C28.0523 29.1657 28.6713 29.9369 29.435 29.9369Z"/>
</mask>
<path d="M13.5454 17.1751C13.5439 17.1651 13.5426 17.1551 13.5414 17.1451L11.8543 4.53453C11.6876 3.28861 10.8223 2.37543 9.80845 2.37543H9.38569C9.00387 2.37543 8.69434 1.98981 8.69434 1.51413C8.69434 1.03845 9.00387 0.652832 9.38569 0.652832H9.80845C11.4564 0.652832 12.8688 2.10031 13.1954 4.09802H35.6572C36.1165 4.09802 36.4481 4.64572 36.3219 5.19593L33.5565 17.2541C33.4717 17.6238 33.2004 17.8788 32.8917 17.8788H15.0413L15.2133 19.1649C15.38 20.4108 16.2453 21.324 17.2592 21.324H32.8917C33.2736 21.324 33.5831 21.7096 33.5831 22.1852C33.5831 22.6609 33.2736 23.0465 32.8917 23.0465H17.2592C15.5694 23.0465 14.1273 21.5246 13.8494 19.448L13.5454 17.1751V17.1751ZM13.4281 5.82061L14.8108 16.1562H32.3703L34.7406 5.82061H13.4281ZM16.9906 31.6595C15.4633 31.6595 14.2252 30.1171 14.2252 28.2143C14.2252 26.3116 15.4633 24.7691 16.9906 24.7691C18.5179 24.7691 19.756 26.3116 19.756 28.2143C19.756 30.1171 18.5179 31.6595 16.9906 31.6595ZM16.9906 29.9369C17.7542 29.9369 18.3733 29.1657 18.3733 28.2143C18.3733 27.263 17.7542 26.4917 16.9906 26.4917C16.2269 26.4917 15.6079 27.263 15.6079 28.2143C15.6079 29.1657 16.2269 29.9369 16.9906 29.9369ZM29.435 31.6595C27.9077 31.6595 26.6696 30.1171 26.6696 28.2143C26.6696 26.3116 27.9077 24.7691 29.435 24.7691C30.9623 24.7691 32.2004 26.3116 32.2004 28.2143C32.2004 30.1171 30.9623 31.6595 29.435 31.6595ZM29.435 29.9369C30.1986 29.9369 30.8177 29.1657 30.8177 28.2143C30.8177 27.263 30.1986 26.4917 29.435 26.4917C28.6713 26.4917 28.0523 27.263 28.0523 28.2143C28.0523 29.1657 28.6713 29.9369 29.435 29.9369Z" fill="#F4F4F4"/>
<path d="M13.5454 17.1751H17.4343V16.888L17.3921 16.6041L13.5454 17.1751ZM13.5414 17.1451L17.4029 16.6847L17.3996 16.657L17.3959 16.6294L13.5414 17.1451ZM11.8543 4.53453L7.99974 5.0502L11.8543 4.53453ZM13.1954 4.09802L9.35748 4.72555L9.89074 7.98691H13.1954V4.09802ZM36.3219 5.19593L40.1124 6.06524V6.06524L36.3219 5.19593ZM33.5565 17.2541L37.347 18.1234L33.5565 17.2541ZM15.0413 17.8788V13.9899H10.5975L11.1867 18.3944L15.0413 17.8788ZM15.2133 19.1649L19.0679 18.6492L19.0679 18.6492L15.2133 19.1649ZM13.8494 19.448L17.704 18.9324V18.9324L13.8494 19.448ZM13.5454 17.1751H9.65648V17.4341L9.69082 17.6907L13.5454 17.1751ZM13.4281 5.82061V1.93172H8.98433L9.57358 6.33628L13.4281 5.82061ZM14.8108 16.1562L10.9563 16.6718L11.4076 20.0451H14.8108V16.1562ZM32.3703 16.1562V20.0451H35.4682L36.1607 17.0255L32.3703 16.1562ZM34.7406 5.82061L38.5311 6.68992L39.6223 1.93172H34.7406V5.82061ZM17.3921 16.6041C17.3961 16.6309 17.3997 16.6577 17.4029 16.6847L9.67982 17.6055C9.68543 17.6526 9.6917 17.6994 9.69862 17.746L17.3921 16.6041ZM17.3959 16.6294L15.7088 4.01886L7.99974 5.0502L9.68681 17.6608L17.3959 16.6294ZM15.7088 4.01886C15.3736 1.51282 13.3793 -1.51346 9.80845 -1.51346V6.26431C9.09192 6.26431 8.58221 5.93279 8.32617 5.66258C8.07915 5.40188 8.01503 5.16447 7.99974 5.0502L15.7088 4.01886ZM9.80845 -1.51346H9.38569V6.26431H9.80845V-1.51346ZM9.38569 -1.51346C10.5824 -1.51346 11.4578 -0.898939 11.9296 -0.311184C12.3955 0.269262 12.5832 0.927516 12.5832 1.51413H4.80545C4.80545 3.2962 6.10178 6.26431 9.38569 6.26431V-1.51346ZM12.5832 1.51413C12.5832 2.10074 12.3955 2.759 11.9296 3.33944C11.4578 3.9272 10.5824 4.54172 9.38569 4.54172V-3.23606C6.10178 -3.23606 4.80545 -0.267944 4.80545 1.51413H12.5832ZM9.38569 4.54172H9.80845V-3.23606H9.38569V4.54172ZM9.80845 4.54172C9.64184 4.54172 9.49479 4.50346 9.3851 4.45388C9.28023 4.40647 9.23033 4.35884 9.22121 4.34954C9.20963 4.33774 9.31153 4.44451 9.35748 4.72555L17.0333 3.47049C16.5039 0.232662 13.9451 -3.23606 9.80845 -3.23606V4.54172ZM13.1954 7.98691H35.6572V0.20913H13.1954V7.98691ZM35.6572 7.98691C34.2103 7.98691 33.2818 7.1143 32.8825 6.45483C32.4796 5.78944 32.3704 5.02879 32.5314 4.32662L40.1124 6.06524C40.3996 4.81286 40.1877 3.50325 39.5357 2.42646C38.8874 1.35559 37.5633 0.20913 35.6572 0.20913V7.98691ZM32.5314 4.32662L29.766 16.3848L37.347 18.1234L40.1124 6.06524L32.5314 4.32662ZM29.766 16.3848C29.9594 15.5416 30.8746 13.9899 32.8917 13.9899V21.7677C35.5263 21.7677 36.984 19.7061 37.347 18.1234L29.766 16.3848ZM32.8917 13.9899H15.0413V21.7677H32.8917V13.9899ZM11.1867 18.3944L11.3588 19.6805L19.0679 18.6492L18.8958 17.3631L11.1867 18.3944ZM11.3588 19.6805C11.6941 22.1866 13.6884 25.2128 17.2592 25.2128V17.4351C17.9757 17.4351 18.4854 17.7666 18.7415 18.0368C18.9885 18.2975 19.0526 18.5349 19.0679 18.6492L11.3588 19.6805ZM17.2592 25.2128H32.8917V17.4351H17.2592V25.2128ZM32.8917 25.2128C31.695 25.2128 30.8197 24.5983 30.3479 24.0106C29.882 23.4301 29.6942 22.7719 29.6942 22.1852H37.472C37.472 20.4032 36.1757 17.4351 32.8917 17.4351V25.2128ZM29.6942 22.1852C29.6942 21.5986 29.882 20.9404 30.3479 20.3599C30.8197 19.7722 31.695 19.1577 32.8917 19.1577V26.9354C36.1757 26.9354 37.472 23.9673 37.472 22.1852H29.6942ZM32.8917 19.1577H17.2592V26.9354H32.8917V19.1577ZM17.2592 19.1577C17.4304 19.1577 17.5804 19.198 17.6904 19.2491C17.7951 19.2977 17.8422 19.3454 17.8477 19.3512C17.8521 19.3558 17.7443 19.2334 17.704 18.9324L9.9949 19.9637C10.4413 23.3004 13.0125 26.9354 17.2592 26.9354V19.1577ZM17.704 18.9324L17.3999 16.6594L9.69082 17.6907L9.9949 19.9637L17.704 18.9324ZM17.4343 17.1751V17.1751H9.65648V17.1751H17.4343ZM9.57358 6.33628L10.9563 16.6718L18.6654 15.6405L17.2827 5.30494L9.57358 6.33628ZM14.8108 20.0451H32.3703V12.2673H14.8108V20.0451ZM36.1607 17.0255L38.5311 6.68992L30.9501 4.9513L28.5798 15.2869L36.1607 17.0255ZM34.7406 1.93172H13.4281V9.7095H34.7406V1.93172ZM16.9906 27.7706C17.6146 27.7706 17.9714 28.0959 18.0679 28.2161C18.1585 28.329 18.1141 28.3412 18.1141 28.2143H10.3363C10.3363 31.4234 12.5612 35.5484 16.9906 35.5484V27.7706ZM18.1141 28.2143C18.1141 28.0874 18.1585 28.0997 18.0679 28.2126C17.9714 28.3327 17.6146 28.658 16.9906 28.658V20.8803C12.5612 20.8803 10.3363 25.0052 10.3363 28.2143H18.1141ZM16.9906 28.658C16.3666 28.658 16.0098 28.3327 15.9133 28.2126C15.8227 28.0997 15.8671 28.0874 15.8671 28.2143H23.6449C23.6449 25.0052 21.42 20.8803 16.9906 20.8803V28.658ZM15.8671 28.2143C15.8671 28.3412 15.8227 28.329 15.9133 28.2161C16.0098 28.0959 16.3666 27.7706 16.9906 27.7706V35.5484C21.42 35.5484 23.6449 31.4234 23.6449 28.2143H15.8671ZM16.9906 33.8258C20.6563 33.8258 22.2622 30.4721 22.2622 28.2143H14.4844C14.4844 27.8656 14.5948 27.4226 14.9356 26.998C15.2823 26.5662 15.9848 26.048 16.9906 26.048V33.8258ZM22.2622 28.2143C22.2622 25.9566 20.6563 22.6028 16.9906 22.6028V30.3806C15.9848 30.3806 15.2823 29.8625 14.9356 29.4306C14.5948 29.006 14.4844 28.5631 14.4844 28.2143H22.2622ZM16.9906 22.6028C13.3249 22.6028 11.719 25.9566 11.719 28.2143H19.4968C19.4968 28.5631 19.3864 29.006 19.0456 29.4306C18.6989 29.8625 17.9964 30.3806 16.9906 30.3806V22.6028ZM11.719 28.2143C11.719 30.4721 13.3249 33.8258 16.9906 33.8258V26.048C17.9964 26.048 18.6989 26.5662 19.0456 26.998C19.3864 27.4226 19.4968 27.8656 19.4968 28.2143H11.719ZM29.435 27.7706C30.059 27.7706 30.4158 28.0959 30.5123 28.2161C30.6028 28.329 30.5584 28.3412 30.5584 28.2143H22.7807C22.7807 31.4234 25.0056 35.5484 29.435 35.5484V27.7706ZM30.5584 28.2143C30.5584 28.0874 30.6028 28.0997 30.5123 28.2126C30.4158 28.3327 30.059 28.658 29.435 28.658V20.8803C25.0056 20.8803 22.7807 25.0052 22.7807 28.2143H30.5584ZM29.435 28.658C28.811 28.658 28.4541 28.3327 28.3577 28.2126C28.2671 28.0997 28.3115 28.0874 28.3115 28.2143H36.0893C36.0893 25.0052 33.8644 20.8803 29.435 20.8803V28.658ZM28.3115 28.2143C28.3115 28.3412 28.2671 28.329 28.3577 28.2161C28.4541 28.0959 28.811 27.7706 29.435 27.7706V35.5484C33.8644 35.5484 36.0893 31.4234 36.0893 28.2143H28.3115ZM29.435 33.8258C33.1007 33.8258 34.7066 30.4721 34.7066 28.2143H26.9288C26.9288 27.8656 27.0392 27.4226 27.38 26.998C27.7266 26.5662 28.4291 26.048 29.435 26.048V33.8258ZM34.7066 28.2143C34.7066 25.9566 33.1007 22.6028 29.435 22.6028V30.3806C28.4291 30.3806 27.7266 29.8625 27.38 29.4306C27.0392 29.006 26.9288 28.5631 26.9288 28.2143H34.7066ZM29.435 22.6028C25.7692 22.6028 24.1634 25.9566 24.1634 28.2143H31.9412C31.9412 28.5631 31.8308 29.006 31.49 29.4306C31.1433 29.8625 30.4408 30.3806 29.435 30.3806V22.6028ZM24.1634 28.2143C24.1634 30.4721 25.7692 33.8258 29.435 33.8258V26.048C30.4408 26.048 31.1433 26.5662 31.49 26.998C31.8308 27.4226 31.9412 27.8656 31.9412 28.2143H24.1634Z" fill="#EFEFEF" mask="url(#path-7-inside-1_1144_3323)"/>
</svg>
